<svg width="16" height="16" viewBox="0 0 16 16" fill="none" xmlns="http://www.w3.org/2000/svg">
<g clip-path="url(#clip0_3624_254)">
<path d="M4.66663 6.6665V14.6665" stroke="#0F172A" stroke-width="1.2" stroke-linecap="round" stroke-linejoin="round"/>
<path d="M10 3.92016L9.33337 6.66683H13.22C13.427 6.66683 13.6312 6.71502 13.8163 6.80759C14.0015 6.90016 14.1625 7.03457 14.2867 7.20016C14.4109 7.36576 14.4948 7.55799 14.5319 7.76165C14.5689 7.9653 14.558 8.17478 14.5 8.3735L12.9467 13.7068C12.8659 13.9838 12.6975 14.2271 12.4667 14.4002C12.2359 14.5733 11.9552 14.6668 11.6667 14.6668H2.66671C2.31309 14.6668 1.97395 14.5264 1.7239 14.2763C1.47385 14.0263 1.33337 13.6871 1.33337 13.3335V8.00016C1.33337 7.64654 1.47385 7.3074 1.7239 7.05735C1.97395 6.80731 2.31309 6.66683 2.66671 6.66683H4.50671C4.75476 6.6667 4.99786 6.59737 5.20868 6.46664C5.41949 6.33592 5.58966 6.14897 5.70004 5.92683L8.00004 1.3335C8.31443 1.33739 8.62387 1.41228 8.90524 1.55256C9.18662 1.69284 9.43266 1.8949 9.62498 2.14363C9.81729 2.39236 9.95092 2.68134 10.0159 2.98896C10.0808 3.29659 10.0754 3.61492 10 3.92016Z" stroke="#0F172A" stroke-width="1.2" stroke-linecap="round" stroke-linejoin="round"/>
</g>
<defs>
<clipPath id="clip0_3624_254">
<rect width="16" height="16" fill="white"/>
</clipPath>
</defs>
</svg>
